<?xml version="1.0" standalone="no"?>
<!DOCTYPE svg PUBLIC "-//W3C//DTD SVG 20010904//EN" "http://www.w3.org/TR/2001/REC-SVG-20010904/DTD/svg10.dtd">
<svg xmlns="http://www.w3.org/2000/svg" version="1.0" width="682.000000pt" height="682.000000pt" viewBox="0 0 682.000000 682.000000" preserveAspectRatio="xMidYMid meet" fill="#111111">
<metadata>
Created by potrace 1.16, written by Peter Selinger 2001-2019
</metadata>
<g transform="translate(0.000000,682.000000) scale(0.100000,-0.100000)" fill="#111111" stroke="none">
<path d="M5749 4926 c-81 -29 -153 -91 -187 -162 l-16 -34 -92 0 c-182 0 -367 -69 -513 -192 -242 -204 -420 -609 -511 -1165 -6 -40 -15 -73 -19 -73 -16 0 -278 280 -402 430 -61 74 -183 236 -253 337 l-56 81 -128 6 c-546 25 -1023 79 -1702 191 -428 71 -1130 208 -1562 304 -177 40 -172 40 -164 -6 15 -85 71 -245 121 -348 300 -612 1049 -908 2230 -882 297 7 391 13 735 48 l215 22 155 -155 c277 -277 535 -459 913 -644 166 -81 159 -84 -38 -17 -303 103 -605 278 -862 499 l-80 70 -369 -27 c-640 -47 -862 -60 -1116 -66 -137 -3 -248 -9 -248 -12 1 -22 152 -205 249 -302 168 -168 329 -268 511 -318 170 -47 635 -18 1189 75 113 18 206 32 208 30 14 -13 -420 -160 -712 -240 -109 -30 -199 -57 -202 -60 -11 -11 105 -161 172 -224 217 -202 506 -224 868 -65 89 39 236 119 305 165 69 47 48 14 -40 -63 -166 -144 -289 -217 -458 -273 -141 -46 -240 -59 -418 -54 -111 3 -155 8 -179 21 -84 45 -271 217 -405 375 l-53 63 -135 4 c-74 3 -165 11 -203 18 -47 10 -67 11 -67 3 0 -6 11 -56 24 -111 153 -627 578 -1154 1161 -1436 585 -283 1247 -291 1848 -22 l57 26 0 153 0 153 -57 -35 c-207 -125 -481 -216 -735 -243 -333 -37 -686 28 -992 181 -104 52 -286 166 -286 179 0 14 64 58 121 82 88 39 193 58 374 67 189 9 258 24 429 91 115 46 194 87 316 166 90 59 242 176 275 213 48 53 57 43 21 -27 -18 -37 -50 -92 -70 -122 -20 -29 -36 -54 -36 -56 0 -1 48 26 108 61 304 182 617 315 907 384 126 31 343 65 352 57 2 -3 0 -38 -6 -77 -39 -252 -160 -365 -423 -395 l-58 -6 0 -305 0 -305 23 6 c68 21 198 80 265 121 89 55 230 192 291 281 89 134 160 299 204 483 42 171 58 302 64 528 l6 213 -24 -5 c-13 -4 -144 -28 -291 -56 -147 -27 -307 -59 -355 -69 -48 -11 -88 -19 -90 -18 -1 1 7 28 18 60 11 32 17 68 13 79 -3 11 -31 58 -61 105 -99 152 -177 339 -218 523 -19 87 -31 356 -18 415 l9 39 27 -47 c56 -95 129 -146 227 -156 l55 -6 14 -132 15 -132 45 -6 c25 -3 102 -17 171 -31 69 -14 131 -26 139 -27 8 -1 43 55 88 140 l74 142 -110 358 c-61 197 -111 361 -111 366 0 4 40 7 88 7 75 0 96 4 140 26 54 27 87 68 98 123 6 27 0 38 -52 98 -135 154 -344 280 -546 330 l-108 27 0 50 c0 29 9 70 20 95 11 24 20 45 20 47 0 10 -108 2 -141 -10z"/>
<path d="M4398 4859 c-406 -30 -786 -174 -1125 -428 -34 -25 -62 -49 -63 -52 -1 -17 246 -58 349 -59 46 0 63 6 125 44 144 90 326 163 506 202 69 16 128 19 313 19 125 0 227 3 227 6 0 18 114 149 163 189 31 24 55 45 53 47 -1 2 -50 9 -107 17 -135 19 -307 24 -441 15z"/>
</g>
</svg>
