<svg version="1.1" xmlns="http://www.w3.org/2000/svg" xmlns:xlink="http://www.w3.org/1999/xlink" viewBox="0 0 172 172"><g fill="none" fill-rule="nonzero" stroke="none" stroke-width="1" stroke-linecap="butt" stroke-linejoin="miter" stroke-miterlimit="10" stroke-dasharray="" stroke-dashoffset="0" font-family="none" font-weight="none" font-size="none" text-anchor="none" style="mix-blend-mode: normal"><path d="M0,172v-172h172v172z" fill="none"></path><g fill="#d4af37"><path d="M59.125,17.91667c-22.72192,0 -41.20833,18.48642 -41.20833,41.20833v53.75c0,22.72192 18.48642,41.20833 41.20833,41.20833h53.75c22.72192,0 41.20833,-18.48642 41.20833,-41.20833v-53.75c0,-22.72192 -18.48642,-41.20833 -41.20833,-41.20833zM121.83333,43c3.95958,0 7.16667,3.20708 7.16667,7.16667c0,3.956 -3.20708,7.16667 -7.16667,7.16667c-3.95958,0 -7.16667,-3.21067 -7.16667,-7.16667c0,-3.95958 3.20708,-7.16667 7.16667,-7.16667zM86,50.16667c19.7585,0 35.83333,16.07483 35.83333,35.83333c0,19.7585 -16.07483,35.83333 -35.83333,35.83333c-19.7585,0 -35.83333,-16.07483 -35.83333,-35.83333c0,-19.7585 16.07483,-35.83333 35.83333,-35.83333zM86,60.91667c-13.85314,0 -25.08333,11.23019 -25.08333,25.08333c0,13.85314 11.23019,25.08333 25.08333,25.08333c13.85314,0 25.08333,-11.23019 25.08333,-25.08333c0,-13.85314 -11.23019,-25.08333 -25.08333,-25.08333z"></path></g></g></svg>