<svg version="1.1" xmlns="http://www.w3.org/2000/svg" xmlns:xlink="http://www.w3.org/1999/xlink" viewBox="0 0 172 172"><g fill="none" fill-rule="nonzero" stroke="none" stroke-width="1" stroke-linecap="butt" stroke-linejoin="miter" stroke-miterlimit="10" stroke-dasharray="" stroke-dashoffset="0" font-family="none" font-weight="none" font-size="none" text-anchor="none" style="mix-blend-mode: normal"><path d="M0,172v-172h172v172z" fill="none"></path><g fill="#d4af37"><path d="M130.79167,21.5h-89.58333c-10.86467,0 -19.70833,8.84367 -19.70833,19.70833v89.58333c0,10.86467 8.84367,19.70833 19.70833,19.70833h89.58333c10.86467,0 19.70833,-8.84367 19.70833,-19.70833v-89.58333c0,-10.86467 -8.84367,-19.70833 -19.70833,-19.70833zM64.5,121.83333c0,1.98158 -1.60175,3.58333 -3.58333,3.58333h-10.75c-1.98158,0 -3.58333,-1.60175 -3.58333,-3.58333v-46.58333c0,-1.98158 1.60175,-3.58333 3.58333,-3.58333h10.75c1.98158,0 3.58333,1.60175 3.58333,3.58333zM55.54167,64.5c-4.94858,0 -8.95833,-4.00975 -8.95833,-8.95833c0,-4.94858 4.00975,-8.95833 8.95833,-8.95833c4.94858,0 8.95833,4.00975 8.95833,8.95833c0,4.94858 -4.00975,8.95833 -8.95833,8.95833zM125.41667,121.83333c0,1.98158 -1.60175,3.58333 -3.58333,3.58333h-10.75c-1.98158,0 -3.58333,-1.60175 -3.58333,-3.58333v-26.875c0,-4.94142 -4.01692,-8.95833 -8.95833,-8.95833c-4.94142,0 -8.95833,4.01692 -8.95833,8.95833v26.875c0,1.98158 -1.60175,3.58333 -3.58333,3.58333h-10.75c-1.98158,0 -3.58333,-1.60175 -3.58333,-3.58333v-46.58333c0,-1.98158 1.60175,-3.58333 3.58333,-3.58333h10.75c1.98158,0 3.58333,1.60175 3.58333,3.58333v1.93858c3.80908,-3.42208 8.82217,-5.52192 14.33333,-5.52192c11.85725,0 21.5,9.64275 21.5,21.5z"></path></g></g></svg>