<svg version="1.1" xmlns="http://www.w3.org/2000/svg" xmlns:xlink="http://www.w3.org/1999/xlink" viewBox="0 0 172 172"><g fill="none" fill-rule="nonzero" stroke="none" stroke-width="1" stroke-linecap="butt" stroke-linejoin="miter" stroke-miterlimit="10" stroke-dasharray="" stroke-dashoffset="0" font-family="none" font-weight="none" font-size="none" text-anchor="none" style="mix-blend-mode: normal"><path d="M0,172v-172h172v172z" fill="none"></path><g fill="#d4af37"><path d="M160.24308,36.92625c-1.05708,-1.09292 -2.68392,-1.40467 -4.07067,-0.76683l-0.58767,0.26875c-0.49808,0.22933 -0.99617,0.45867 -1.49783,0.68442c1.45842,-2.32558 2.61583,-4.81242 3.41492,-7.38525c0.44433,-1.419 -0.03942,-2.97058 -1.21475,-3.88792c-1.17533,-0.91733 -2.795,-1.01408 -4.06708,-0.2365c-4.08858,2.48325 -8.01592,4.27133 -12.07583,5.51833c-6.1275,-5.94475 -14.47308,-9.62125 -23.68583,-9.62125c-18.80175,0 -34.04167,15.23992 -34.04167,34.04167c0,0.01792 0,0.72742 0,1.79167l-3.57975,-0.28667c-34.84075,-4.12083 -44.75942,-27.55583 -45.1715,-28.56633c-0.6665,-1.68417 -2.13567,-2.91325 -3.90942,-3.28233c-1.77017,-0.37625 -3.60842,0.17917 -4.89125,1.45842c-0.7095,0.71308 -6.94808,7.31358 -6.94808,19.92692c0,8.987 4.00617,16.2755 9.19125,21.94433c-2.41517,-1.47275 -3.82342,-2.666 -3.85925,-2.69825c-1.65192,-1.4405 -4.01692,-1.7415 -5.98058,-0.74533c-1.9565,0.99975 -3.11033,3.08883 -2.91325,5.27825c0.06808,0.75608 1.59458,15.09658 18.16033,25.92542l-3.02075,0.54825c-1.83108,0.33325 -3.36117,1.591 -4.042,3.32533c-0.67725,1.73792 -0.41208,3.698 0.70592,5.18867c0.37625,0.50525 7.3745,9.60333 22.57142,14.835c-8.11625,2.70542 -19.26758,5.23167 -32.60475,5.23167c-2.107,0 -4.02408,1.23267 -4.89483,3.15333c-0.87433,1.92067 -0.54108,4.17458 0.84925,5.75842c0.57692,0.66292 14.56267,16.17158 50.62892,16.17158c59.88825,0 87.79167,-55.59542 87.79167,-93.16667v-1.79167c0,-0.53033 -0.05733,-1.04992 -0.07883,-1.57308c7.49633,-7.2455 10.31642,-12.68142 10.45258,-12.95017c0.67725,-1.36167 0.42642,-3.00283 -0.63067,-4.09217z"></path></g></g></svg>