<?xml version="1.0" standalone="no"?>
<!DOCTYPE svg PUBLIC "-//W3C//DTD SVG 20010904//EN"
 "http://www.w3.org/TR/2001/REC-SVG-20010904/DTD/svg10.dtd">
<svg version="1.0" xmlns="http://www.w3.org/2000/svg"
 width="240.000000pt" height="163.000000pt" viewBox="0 0 240.000000 163.000000"
 preserveAspectRatio="xMidYMid meet">

<g transform="translate(0.000000,163.000000) scale(0.100000,-0.100000)"
fill="#000000" stroke="none">
<path d="M268 1551 c-72 -29 -124 -75 -155 -139 l-28 -57 0 -545 0 -545 25
-48 c29 -57 76 -102 139 -131 46 -21 55 -21 939 -24 993 -4 959 -6 1039 63 23
19 54 61 70 93 l28 57 0 545 0 545 -25 49 c-14 27 -43 64 -66 82 -84 69 -22
65 -1018 70 -870 4 -903 4 -948 -15z m991 -280 c17 -38 38 -74 45 -80 7 -6 40
-16 72 -21 127 -22 128 -24 49 -98 -30 -28 -57 -62 -61 -76 -3 -13 -1 -55 5
-93 7 -44 7 -71 1 -77 -7 -7 -35 2 -83 27 -39 20 -78 37 -85 37 -7 0 -44 -16
-83 -36 -86 -43 -98 -38 -81 37 24 101 18 124 -45 190 -38 40 -53 63 -46 70 5
5 38 14 74 20 96 15 95 14 139 95 23 40 47 74 54 74 7 0 27 -31 45 -69z m-643
-731 c26 -38 51 -67 56 -64 5 3 27 35 49 70 37 58 44 64 75 64 l34 0 0 -159
c0 -151 -1 -160 -20 -166 -35 -11 -40 3 -40 106 0 63 -4 99 -10 97 -6 -2 -27
-27 -48 -57 -20 -30 -42 -56 -47 -58 -6 -1 -26 24 -45 57 -19 33 -38 60 -42
60 -9 0 -10 -2 -11 -108 0 -79 -2 -85 -24 -95 -35 -16 -40 -1 -37 116 1 56 3
126 3 155 1 51 2 52 31 52 26 0 36 -9 76 -70z m377 53 c4 -14 2 -274 -2 -306
-1 -5 -13 -7 -28 -5 l-28 3 -1 150 c-1 83 1 156 4 163 7 19 50 15 55 -5z m167
-118 l0 -134 83 -3 c81 -3 82 -3 85 -30 l3 -28 -115 0 -116 0 0 165 0 165 30
0 30 0 0 -135z m494 119 c13 -33 -12 -43 -97 -41 l-82 2 0 -40 c0 -44 -8 -41
113 -44 38 -1 42 -3 42 -26 0 -23 -3 -24 -77 -27 l-78 -3 -3 -37 -3 -38 43 -1
c24 -1 62 -2 85 -3 46 -1 69 -16 60 -40 -5 -13 -27 -16 -127 -16 l-120 0 0
158 c0 87 3 162 7 165 3 4 57 7 119 7 94 0 113 -3 118 -16z m276 1 c33 -17 38
-36 16 -54 -11 -9 -22 -8 -50 6 -48 22 -91 9 -91 -27 0 -22 8 -28 63 -46 34
-12 70 -28 78 -35 45 -37 35 -117 -17 -145 -81 -41 -249 15 -185 62 15 10 23
9 49 -7 61 -36 141 -14 116 32 -6 11 -16 22 -22 23 -121 34 -149 54 -149 111
0 58 44 95 113 95 27 0 63 -7 79 -15z"/>
</g>
</svg>
