<svg xmlns="http://www.w3.org/2000/svg" width="76" height="19" viewBox="0 0 76 19">
    <g fill="none" fill-rule="nonzero">
        <path fill="#253B80" d="M28.323 4.136H24.13a.582.582 0 0 0-.575.492L21.86 15.377a.35.35 0 0 0 .346.403h2.001a.582.582 0 0 0 .576-.492l.457-2.9a.582.582 0 0 1 .575-.492h1.327c2.76 0 4.354-1.336 4.77-3.983.188-1.159.009-2.069-.534-2.706-.596-.7-1.652-1.07-3.055-1.07zm.483 3.926c-.229 1.504-1.378 1.504-2.49 1.504h-.632l.444-2.809a.35.35 0 0 1 .345-.295h.29c.757 0 1.471 0 1.84.432.22.257.287.64.203 1.168zm12.046-.048h-2.007a.35.35 0 0 0-.345.295l-.089.56-.14-.203c-.435-.63-1.404-.841-2.37-.841-2.219 0-4.113 1.68-4.482 4.037-.192 1.175.08 2.3.747 3.083.612.72 1.487 1.021 2.529 1.021 1.787 0 2.778-1.15 2.778-1.15l-.09.559a.35.35 0 0 0 .345.404h1.808a.582.582 0 0 0 .575-.492l1.085-6.87a.348.348 0 0 0-.344-.403zm-2.797 3.906c-.194 1.147-1.104 1.917-2.265 1.917-.583 0-1.049-.187-1.348-.541-.297-.352-.41-.853-.315-1.41.18-1.138 1.106-1.932 2.25-1.932.57 0 1.033.189 1.338.546.306.361.427.865.34 1.42zm13.488-3.906h-2.017a.585.585 0 0 0-.483.255l-2.782 4.098-1.179-3.938a.584.584 0 0 0-.559-.415h-1.982a.35.35 0 0 0-.332.462l2.222 6.52-2.089 2.949a.35.35 0 0 0 .285.551h2.015c.191 0 .37-.093.479-.25l6.709-9.684a.35.35 0 0 0-.287-.548z"/>
        <path fill="#179BD7" d="M58.22 4.136H54.03a.582.582 0 0 0-.575.492l-1.696 10.749a.349.349 0 0 0 .345.403h2.151c.2 0 .371-.147.402-.345l.481-3.046a.582.582 0 0 1 .575-.493h1.327c2.761 0 4.354-1.336 4.771-3.983.188-1.159.007-2.069-.535-2.706-.595-.7-1.651-1.07-3.054-1.07zm.484 3.926c-.228 1.504-1.377 1.504-2.49 1.504h-.631l.444-2.809a.348.348 0 0 1 .345-.295h.29c.756 0 1.47 0 1.84.432.22.257.286.64.202 1.168zm12.046-.048h-2.006a.348.348 0 0 0-.345.295l-.088.56-.141-.203c-.435-.63-1.403-.841-2.37-.841-2.219 0-4.113 1.68-4.481 4.037-.192 1.175.08 2.3.747 3.083.613.72 1.487 1.021 2.528 1.021 1.787 0 2.778-1.15 2.778-1.15l-.09.559a.35.35 0 0 0 .346.404h1.808c.286 0 .53-.209.575-.492l1.085-6.87a.35.35 0 0 0-.346-.403zm-2.798 3.906c-.192 1.147-1.104 1.917-2.265 1.917-.581 0-1.048-.187-1.347-.541-.297-.352-.409-.853-.316-1.41.183-1.138 1.107-1.932 2.25-1.932.57 0 1.033.189 1.338.546.307.361.429.865.34 1.42zm5.164-7.489l-1.72 10.946a.349.349 0 0 0 .344.403h1.73a.581.581 0 0 0 .575-.492L75.742 4.54a.35.35 0 0 0-.344-.404H73.46a.35.35 0 0 0-.345.295z"/>
        <path fill="#253B80" d="M4.453 17.869l.32-2.036-.713-.017H.65L3.02.792a.194.194 0 0 1 .192-.164h5.75c1.908 0 3.225.397 3.913 1.18.322.368.527.753.627 1.176.104.443.106.974.004 1.62l-.007.047v.415l.322.182c.246.125.467.294.653.498.276.314.454.714.53 1.188.077.487.051 1.067-.076 1.723-.147.755-.385 1.413-.706 1.951-.284.482-.665.9-1.119 1.226a4.538 4.538 0 0 1-1.506.68 7.513 7.513 0 0 1-1.883.217h-.448c-.32 0-.63.115-.874.322a1.355 1.355 0 0 0-.456.814l-.034.183-.566 3.589-.026.132c-.007.041-.018.062-.035.076a.095.095 0 0 1-.06.022H4.454z"/>
        <path fill="#179BD7" d="M14.126 4.7c-.017.109-.037.221-.059.336-.758 3.893-3.352 5.237-6.664 5.237H5.716a.82.82 0 0 0-.81.694l-.863 5.477-.245 1.553a.431.431 0 0 0 .426.499h2.992a.72.72 0 0 0 .71-.607l.03-.152.563-3.575.037-.196a.72.72 0 0 1 .71-.608h.448c2.898 0 5.167-1.177 5.83-4.582.277-1.422.134-2.61-.599-3.446a2.86 2.86 0 0 0-.819-.63z"/>
        <path fill="#222D65" d="M13.333 4.383a5.98 5.98 0 0 0-.737-.164 9.368 9.368 0 0 0-1.487-.108H6.603a.718.718 0 0 0-.71.608l-.96 6.071-.027.177a.819.819 0 0 1 .81-.694h1.687c3.312 0 5.906-1.345 6.664-5.237a8.7 8.7 0 0 0 .06-.337 4.041 4.041 0 0 0-.794-.316z"/>
        <path fill="#253B80" d="M5.892 4.719a.716.716 0 0 1 .71-.608h4.507c.534 0 1.032.035 1.487.109.308.048.611.12.907.216.224.074.432.162.624.263.225-1.438-.002-2.418-.78-3.305C12.49.418 10.942 0 8.962 0h-5.75a.822.822 0 0 0-.811.694L.006 15.873a.494.494 0 0 0 .487.571h3.55l.89-5.654.96-6.071z"/>
    </g>
</svg>
